<svg xmlns="http://www.w3.org/2000/svg" viewBox="0 0 48 48" width="48" height="48" role="img" aria-label="RIIMS">
  <path d="M30.5 5C38.4 5 43 12 43 24C43 36 38.4 43 30.5 43C22.7 43 18.4 36.6 21.2 29.8C22.4 26.9 22.4 21.1 21.2 18.2C18.4 11.4 22.7 5 30.5 5Z" fill="#114e8f"></path>
  <path d="M29.5 12.5C37.5 16, 37.5 32, 29.5 35.5C21.5 32, 21.5 16, 29.5 12.5Z" fill="#14905b"></path>
  <path d="M29.5 14L29.5 34M29.5 20.5C31.6 19.4 33.8 19 35.8 19.2M29.5 26.5C27.4 25.4 25.2 25 23.2 25.2" stroke="#ffffff" stroke-width="1.3" stroke-linecap="round" fill="none"></path>
</svg>